<?xml version="1.0" encoding="utf-8"?>
<!-- Generator: Adobe Illustrator 23.0.3, SVG Export Plug-In . SVG Version: 6.00 Build 0)  -->
<svg version="1.1" id="Ebene_1" xmlns="http://www.w3.org/2000/svg" xmlns:xlink="http://www.w3.org/1999/xlink" x="0px" y="0px"
	 viewBox="0 0 600 458" style="enable-background:new 0 0 600 458;" xml:space="preserve">
<style type="text/css">
	.st0{fill:none;stroke:#161616;stroke-width:8.9077;stroke-linecap:round;stroke-miterlimit:10;}
	.st1{fill:#161616;}
	.st2{fill:#FFFFFF;stroke:#161616;stroke-width:8.9077;stroke-linecap:round;stroke-miterlimit:10;}
	.st3{fill:#F291AB;}
	.st4{fill:#D882A1;}
	.st5{fill:none;stroke:#161616;stroke-width:8.9077;stroke-miterlimit:10;}
	.st6{fill:#FFFFFF;stroke:#161616;stroke-width:5.9385;stroke-miterlimit:10;}
	.st7{fill:#D882A1;stroke:#161616;stroke-width:5.9385;stroke-miterlimit:10;}
	.st8{fill:none;stroke:#161616;stroke-width:5.9385;stroke-miterlimit:10;}
	.st9{fill:none;stroke:#161616;stroke-width:5.9385;stroke-linecap:round;stroke-miterlimit:10;}
</style>
<g id="Arm_Links_2_">
	<g>
		<path class="st0" d="M51.9,313.2L17.6,264c-6.4-9.1-7.4-21-2.6-31.1l22.6-47.8"/>
		
			<ellipse transform="matrix(0.8051 -0.5932 0.5932 0.8051 -175.8602 93.7862)" class="st1" cx="54.8" cy="314.5" rx="8.3" ry="12.2"/>
	</g>
</g>
<g id="Bein_Links_2_">
	<g>
		<polyline class="st2" points="207.3,340.2 204.3,372.9 211.7,427.8 		"/>
		
			<ellipse transform="matrix(0.9585 -0.2851 0.2851 0.9585 -115.3408 75.285)" class="st1" cx="200.9" cy="433.8" rx="17" ry="7.8"/>
	</g>
</g>
<g id="Lebi_2_">
	<path class="st3" d="M19.5,128.4c0,0,4.3-132.1,184.9-118.2C385.1,24,425.1,42.3,425.1,42.3S528.7,31.1,571,52.4
		c42.3,21.4-4.9,64.4-28.4,61.5c-23.5-2.9-89,67.7-93.6,80.6c-3.6,10.2-24.7,48.1-74.8,66.3s-106.1,35.8-106.1,35.8
		s-88,84.1-129.3,79c-41.3-5.1-56.7-25.8-69.4-43.7C56.6,314.3,30.2,286.7,19.5,128.4z"/>
	<path class="st4" d="M152.3,377.4c0,0,74.2-32.7,115.8-80.2l126.2-43.1l35.6-29.7l17.8-23.7c0,0,53.5-89.1,124.7-95
		c0,0,38.6-35.6-5.9-56.4C556.1,50.8,489.4,73,486,91c-22.7,29-81.1,101.5-109.5,115.7c-23.7,26.7-80.7,8.5-121.8,56.4
		c-57.5,67.1-132.4,81.4-187.1,47.5C29.6,299.1,103.3,381.8,152.3,377.4z"/>
	<path class="st5" d="M19.5,128.4c0,0,4.3-132.1,184.9-118.2C385.1,24,425.1,42.3,425.1,42.3S528.7,31.1,571,52.4
		c42.3,21.4-4.9,64.4-28.4,61.5c-23.5-2.9-89,67.7-93.6,80.6c-3.6,10.2-24.7,48.1-74.8,66.3s-106.1,35.8-106.1,35.8
		s-88,84.1-129.3,79c-41.3-5.1-56.7-25.8-69.4-43.7C56.6,314.3,30.2,286.7,19.5,128.4z"/>
	<ellipse transform="matrix(0.991 -0.1339 0.1339 0.991 -19.7034 14.4367)" class="st6" cx="97.5" cy="153.7" rx="33.7" ry="58"/>
	<path class="st7" d="M114.2,113.9c-13.7,8-28.2,9.9-43.5,5.9c-1.7-0.5-2.6-2.4-1.8-4c12.4-23.9,27.6-25.9,45.9-6.2
		C116.1,110.8,115.8,113,114.2,113.9z"/>
	
		<ellipse transform="matrix(5.512533e-03 -1 1 5.512533e-03 66.4796 354.1018)" class="st6" cx="211.3" cy="143.6" rx="61.1" ry="37.5"/>
	<path class="st7" d="M239.5,106.4c-18.9,9-37.6,8.7-56.2-0.9C202.6,75.3,221.2,75.7,239.5,106.4z"/>
	<circle class="st1" cx="212.5" cy="143.2" r="18.3"/>
	<path class="st8" d="M181.4,107c20.4,8.8,40.5,9.3,60.2,0.3"/>
	<path class="st6" d="M103.4,251.1c38.5,49.3,74.4,37.3,107.8-8.2c1.9-2.6,0.1-7.4-2.6-6.2c-35.4,16.4-70,20.1-103.4,8.2
		C102.7,244,101.6,248.6,103.4,251.1z"/>
	<circle class="st1" cx="98.5" cy="148.7" r="16.6"/>
	<path class="st9" d="M120.9,350c12.1,11,21,8.1,32.9,5.1"/>
	<path class="st9" d="M480.6,117.8c16.2-2.2,36.3-20.3,41.6-31.3"/>
</g>
<g id="Augenbrauen_2_">
	<path class="st9" d="M106,82.2c-13.6-13.5-26.9-9.3-39.5,3.2"/>
	<path class="st9" d="M227.8,72.5c-13.6-13.5-26.9-9.3-39.5,3.2"/>
</g>
<g id="Bein_Rechts_2_">
	<g>
		<polyline class="st0" points="287.4,289.7 278.5,361 288.2,433.8 		"/>
		<ellipse transform="matrix(0.9585 -0.2851 0.2851 0.9585 -113.1121 96.899)" class="st1" cx="276.3" cy="437" rx="17" ry="7.8"/>
	</g>
</g>
<g id="Arm_Rechts_2_">
	<g>
		<path class="st0" d="M315.6,312l18.3-57.1c3.4-10.7,0.9-22.2-6.7-30.4l-35.6-39"/>
		
			<ellipse transform="matrix(0.3283 -0.9446 0.9446 0.3283 -85.7622 508.3671)" class="st1" cx="314.6" cy="314.5" rx="12.2" ry="8.3"/>
	</g>
</g>
</svg>
